<svg xmlns="http://www.w3.org/2000/svg"  viewBox="0 0 100 100" width="100px" height="100px"><path d="M 30.986328 17.988281 C 23.806328 17.988281 17.986328 23.808281 17.986328 30.988281 L 17.986328 69.988281 C 17.986328 77.168281 23.806328 82.988281 30.986328 82.988281 L 69.986328 82.988281 C 77.165328 82.988281 82.986328 77.168281 82.986328 69.988281 L 82.986328 30.988281 C 82.986328 23.808281 77.166328 17.988281 69.986328 17.988281 L 30.986328 17.988281 z M 30.986328 19.988281 L 69.986328 19.988281 C 76.061328 19.988281 80.986328 24.913281 80.986328 30.988281 L 80.986328 69.988281 C 80.986328 76.063281 76.061328 80.988281 69.986328 80.988281 L 30.986328 80.988281 C 24.911328 80.988281 19.986328 76.063281 19.986328 69.988281 L 19.986328 30.988281 C 19.986328 24.913281 24.910328 19.988281 30.986328 19.988281 z M 33.822266 22.988281 C 27.837266 22.988281 22.986328 27.839219 22.986328 33.824219 L 22.986328 67.150391 C 22.986328 73.135391 27.837266 77.988281 33.822266 77.988281 L 67.148438 77.988281 C 73.133437 77.988281 77.986328 73.136391 77.986328 67.150391 L 77.986328 48.488281 C 77.986328 48.212281 77.762328 47.988281 77.486328 47.988281 C 77.210328 47.988281 76.986328 48.212281 76.986328 48.488281 L 76.986328 67.150391 C 76.986328 72.583391 72.581437 76.988281 67.148438 76.988281 L 33.824219 76.988281 C 28.391219 76.988281 23.986328 72.583391 23.986328 67.150391 L 23.986328 33.824219 C 23.986328 28.391219 28.389266 23.988281 33.822266 23.988281 L 67.486328 23.988281 C 67.762328 23.988281 67.986328 23.764281 67.986328 23.488281 C 67.986328 23.212281 67.762328 22.988281 67.486328 22.988281 L 33.822266 22.988281 z M 50.5 31 C 38.128903 31 28 39.228718 28 49.5 C 28 56.037762 32.159238 61.72782 38.326172 65.007812 C 38.055381 66.491176 37.343125 68.491904 35.199219 70.099609 L 33.519531 71.361328 L 35.587891 70.992188 C 35.587891 70.992188 37.125478 70.718397 38.978516 70.097656 C 40.742958 69.506594 42.771738 68.586879 44.142578 67.220703 C 46.162863 67.710102 48.288775 68 50.5 68 C 62.871097 68 73 59.771282 73 49.5 C 73 39.228718 62.871097 31 50.5 31 z M 50.5 32 C 62.428903 32 72 39.889282 72 49.5 C 72 59.110718 62.428903 67 50.5 67 C 48.284205 67 46.146653 66.725646 44.136719 66.21875 L 43.847656 66.146484 L 43.646484 66.365234 C 42.508919 67.604685 40.439368 68.554381 38.660156 69.150391 C 37.893124 69.407335 37.818698 69.380978 37.259766 69.519531 C 38.647348 67.916897 39.208936 66.161197 39.40625 64.875 L 39.462891 64.517578 L 39.138672 64.353516 C 33.022818 61.246665 29 55.746224 29 49.5 C 29 39.889282 38.571097 32 50.5 32 z M 77.486328 36.566406 C 77.210328 36.566406 76.986328 36.790406 76.986328 37.066406 L 76.986328 39.066406 C 76.986328 39.342406 77.210328 39.566406 77.486328 39.566406 C 77.762328 39.566406 77.986328 39.343406 77.986328 39.066406 L 77.986328 37.066406 C 77.986328 36.790406 77.762328 36.566406 77.486328 36.566406 z M 77.486328 40.566406 C 77.210328 40.566406 76.986328 40.790406 76.986328 41.066406 L 76.986328 45.066406 C 76.986328 45.342406 77.210328 45.566406 77.486328 45.566406 C 77.762328 45.566406 77.986328 45.343406 77.986328 45.066406 L 77.986328 41.066406 C 77.986328 40.790406 77.762328 40.566406 77.486328 40.566406 z"/></svg>